<svg width="12" height="12" viewBox="0 0 12 12" fill="none" xmlns="http://www.w3.org/2000/svg">
<path d="M9.04453 5.29894C8.95998 5.49682 8.75432 5.60992 8.54652 5.57282L8.02363 5.47946C7.30815 5.35167 6.76612 4.74703 6.70285 4.00615L6.62909 3.14304C6.61784 3.01212 6.43699 2.99646 6.40446 3.12358L6.1188 4.24258C5.96016 4.86403 5.46201 5.33361 4.84407 5.44398L3.77631 5.63464C3.65006 5.65728 3.65006 5.84272 3.77631 5.86536L4.64491 6.02054C5.36039 6.14833 5.90242 6.75297 5.96569 7.49385L6.03945 8.35696C6.0507 8.48788 6.23155 8.50354 6.26409 8.37642L6.54974 7.25742C6.70838 6.63597 7.20653 6.16639 7.82447 6.05602L8.49152 5.93679C8.71796 5.89631 8.93859 6.03407 9.00716 6.25873L9.90354 9.19571C9.9496 9.34663 9.8395 9.5 9.68508 9.5H2.45777C2.19935 9.5 1.99216 9.2811 2.00023 9.01661L2.2005 2.45411C2.20822 2.20105 2.41079 2 2.65805 2H10.1042C10.2693 2 10.3801 2.17348 10.3139 2.32833L9.04453 5.29894Z" fill="#00C4BD"/>
</svg>
